<svg xmlns="http://www.w3.org/2000/svg" width="1500" height="860" viewBox="0 0 1500 860">
<defs><marker id="arrow" markerWidth="10" markerHeight="10" refX="8" refY="3" orient="auto" markerUnits="strokeWidth"><path d="M0,0 L0,6 L9,3 z" fill="#57534e"/></marker></defs>
<rect width="100%" height="100%" fill="#f7f4ed"/>
<text x="70" y="48.0" font-size="26" font-weight="700" fill="#292524">Long V1 入场形态逻辑图</text>
<rect x="70" y="95" width="260" height="105" rx="12" fill="#ffffff" stroke="#d6d3d1" stroke-width="2"/>
<text x="88" y="127.0" font-size="18" font-weight="700" fill="#292524">Universe</text>
<text x="88" y="159.0" font-size="15" font-weight="400" fill="#292524">BNB / XRP / DOGE / ZEC</text>
<rect x="390" y="95" width="260" height="125" rx="12" fill="#ffffff" stroke="#d6d3d1" stroke-width="2"/>
<text x="408" y="127.0" font-size="18" font-weight="700" fill="#292524">Dual trend</text>
<text x="408" y="159.0" font-size="15" font-weight="400" fill="#292524">Pair 4h uptrend</text>
<text x="408" y="179.25" font-size="15" font-weight="400" fill="#292524">BTC 4h uptrend</text>
<rect x="710" y="95" width="300" height="125" rx="12" fill="#ffffff" stroke="#d6d3d1" stroke-width="2"/>
<text x="728" y="127.0" font-size="18" font-weight="700" fill="#292524">Compression</text>
<text x="728" y="159.0" font-size="15" font-weight="400" fill="#292524">Last 12x1h range is tight</text>
<text x="728" y="179.25" font-size="15" font-weight="400" fill="#292524">volume breakout ok</text>
<rect x="1070" y="95" width="340" height="150" rx="12" fill="#ffffff" stroke="#d6d3d1" stroke-width="2"/>
<text x="1088" y="127.0" font-size="18" font-weight="700" fill="#292524">Pullback</text>
<text x="1088" y="159.0" font-size="15" font-weight="400" fill="#292524">24h recent high exists</text>
<text x="1088" y="179.25" font-size="15" font-weight="400" fill="#292524">12h pullback low intact</text>
<text x="1088" y="199.5" font-size="15" font-weight="400" fill="#292524">pullback depth &lt;= 5%</text>
<rect x="300" y="410" width="340" height="150" rx="12" fill="#ffffff" stroke="#d6d3d1" stroke-width="2"/>
<text x="318" y="442.0" font-size="18" font-weight="700" fill="#292524">Restart candle</text>
<text x="318" y="474.0" font-size="15" font-weight="400" fill="#292524">Break above compression high</text>
<text x="318" y="494.25" font-size="15" font-weight="400" fill="#292524">close near candle top &gt;= 0.72</text>
<text x="318" y="514.5" font-size="15" font-weight="400" fill="#292524">close &gt; 4h EMA50</text>
<rect x="710" y="410" width="330" height="150" rx="12" fill="#ffffff" stroke="#d6d3d1" stroke-width="2"/>
<text x="728" y="442.0" font-size="18" font-weight="700" fill="#292524">Risk gate</text>
<text x="728" y="474.0" font-size="15" font-weight="400" fill="#292524">ATR% &lt;= 5%</text>
<text x="728" y="494.25" font-size="15" font-weight="400" fill="#292524">24h return in [-2%, 12%]</text>
<text x="728" y="514.5" font-size="15" font-weight="400" fill="#292524">stop distance 0.5%-5%</text>
<rect x="1080" y="410" width="350" height="150" rx="12" fill="#ffffff" stroke="#d6d3d1" stroke-width="2"/>
<text x="1098" y="442.0" font-size="18" font-weight="700" fill="#292524">Entry point</text>
<text x="1098" y="474.0" font-size="15" font-weight="400" fill="#292524">Enter long at restart close</text>
<text x="1098" y="494.25" font-size="15" font-weight="400" fill="#292524">initial stop = pullback low - 0.2 ATR</text>
<text x="1098" y="514.5" font-size="15" font-weight="400" fill="#292524">ROI target = +5%</text>
<rect x="710" y="690" width="350" height="135" rx="12" fill="#ffffff" stroke="#d6d3d1" stroke-width="2"/>
<text x="728" y="722.0" font-size="18" font-weight="700" fill="#292524">Exit control</text>
<text x="728" y="754.0" font-size="15" font-weight="400" fill="#292524">Structural stop / trailing stop</text>
<text x="728" y="774.25" font-size="15" font-weight="400" fill="#292524">stale loss 72h</text>
<text x="728" y="794.5" font-size="15" font-weight="400" fill="#292524">trend flip under +3%</text>
<line x1="330" y1="148" x2="390" y2="148" stroke="#57534e" stroke-width="3" marker-end="url(#arrow)"/>
<line x1="650" y1="148" x2="710" y2="148" stroke="#57534e" stroke-width="3" marker-end="url(#arrow)"/>
<line x1="1010" y1="148" x2="1070" y2="148" stroke="#57534e" stroke-width="3" marker-end="url(#arrow)"/>
<line x1="1240" y1="250" x2="470" y2="410" stroke="#57534e" stroke-width="3" marker-end="url(#arrow)"/>
<line x1="640" y1="485" x2="710" y2="485" stroke="#57534e" stroke-width="3" marker-end="url(#arrow)"/>
<line x1="1040" y1="485" x2="1080" y2="485" stroke="#57534e" stroke-width="3" marker-end="url(#arrow)"/>
<line x1="1230" y1="560" x2="885" y2="690" stroke="#57534e" stroke-width="3" marker-end="url(#arrow)"/>
<text x="70" y="810.0" font-size="18" font-weight="400" fill="#292524">形态摘要：高周期同向 -&gt; 1h 窄幅压缩 -&gt; 可控回踩 -&gt; 强势重启阳线 -&gt; 入场，止损放在回踩低点下方。</text>
</svg>